<svg xmlns="http://www.w3.org/2000/svg" xmlns:xlink="http://www.w3.org/1999/xlink" width="227.77" height="228.5" viewBox="0 0 227.77 228.5"><defs><style>.cls-1{fill:url(#linear-gradient);}.cls-2{fill:url(#linear-gradient-2);}.cls-3{fill:url(#linear-gradient-3);}.cls-4{fill:url(#linear-gradient-4);}.cls-5{fill:url(#linear-gradient-5);}.cls-6{fill:url(#linear-gradient-6);}.cls-7{fill:url(#linear-gradient-7);}.cls-8{fill:url(#linear-gradient-8);}.cls-9{fill:url(#linear-gradient-9);}.cls-10{fill:url(#linear-gradient-10);}.cls-11{fill:url(#linear-gradient-11);}.cls-12{fill:url(#linear-gradient-12);}.cls-13{fill:url(#linear-gradient-13);}.cls-14{fill:url(#linear-gradient-14);}</style><linearGradient id="linear-gradient" x1="1.93" y1="147.93" x2="33.04" y2="147.93" gradientUnits="userSpaceOnUse"><stop offset="0" stop-color="#f7931e"/><stop offset="1" stop-color="#f15a24"/></linearGradient><linearGradient id="linear-gradient-2" x1="0" y1="112.4" x2="24" y2="112.4" xlink:href="#linear-gradient"/><linearGradient id="linear-gradient-3" x1="4.46" y1="78.34" x2="32.39" y2="78.34" xlink:href="#linear-gradient"/><linearGradient id="linear-gradient-4" x1="21.67" y1="40.69" x2="54.42" y2="40.69" xlink:href="#linear-gradient"/><linearGradient id="linear-gradient-5" x1="59.45" y1="19.84" x2="93.39" y2="19.84" xlink:href="#linear-gradient"/><linearGradient id="linear-gradient-6" x1="101.77" y1="12.05" x2="131.54" y2="12.05" xlink:href="#linear-gradient"/><linearGradient id="linear-gradient-7" x1="162.32" y1="34.92" x2="198.25" y2="34.92" xlink:href="#linear-gradient"/><linearGradient id="linear-gradient-8" x1="189.52" y1="72.96" x2="219.86" y2="72.96" xlink:href="#linear-gradient"/><linearGradient id="linear-gradient-9" x1="203.79" y1="112.81" x2="227.77" y2="112.81" xlink:href="#linear-gradient"/><linearGradient id="linear-gradient-10" x1="193.16" y1="155.56" x2="224.19" y2="155.56" xlink:href="#linear-gradient"/><linearGradient id="linear-gradient-11" x1="167.46" y1="188.8" x2="198.6" y2="188.8" xlink:href="#linear-gradient"/><linearGradient id="linear-gradient-12" x1="129.04" y1="210.27" x2="164.86" y2="210.27" xlink:href="#linear-gradient"/><linearGradient id="linear-gradient-13" x1="88.97" y1="215.37" x2="120.72" y2="215.37" xlink:href="#linear-gradient"/><linearGradient id="linear-gradient-14" x1="49.56" y1="201.02" x2="82.97" y2="201.02" xlink:href="#linear-gradient"/></defs><g id="Layer_2" data-name="Layer 2"><g id="Layer_1-2" data-name="Layer 1"><path class="cls-1" d="M2.9,136.17l4.25-1.45,2.71,7.95a8.41,8.41,0,0,1,.08-3.28,8.72,8.72,0,0,1,1.25-2.93l.34-.69a9.32,9.32,0,0,1,1.86-2.48,7.61,7.61,0,0,1,2.8-1.66,8.16,8.16,0,0,1,3.23-.42,8.28,8.28,0,0,1,3,.83,8.64,8.64,0,0,1,2.49,1.9,7.72,7.72,0,0,1,1.63,2.77L33,155.63l-1,1.89-21,7.16L1.93,138Zm.5,2.52L8,152.08l3.82,11.19,12.27-4.18,6.75-2.31L27,145.59l-2.3-6.73a6.76,6.76,0,0,0-1.42-2.42,6.85,6.85,0,0,0-2.17-1.63,7.06,7.06,0,0,0-2.63-.69,7.22,7.22,0,0,0-2.79.38,6.89,6.89,0,0,0-2.39,1.39,7,7,0,0,0-2.38,4.76,7,7,0,0,0,.36,2.79l1.17,3.41,1.13,3.32-3.38,1.15L7.9,144.59l-2.28-6.66Zm1.87-.1L9.84,152l4.28-1.46-2.44-7.15a6.46,6.46,0,0,1-.34-2.63,6.69,6.69,0,0,1,7.08-6.1,6.54,6.54,0,0,1,4.47,2.16,6.33,6.33,0,0,1,1.34,2.29l5.95,17.44-18.11,6.18L4,139Zm11-2.31a4.91,4.91,0,0,0-1.77,1,5.19,5.19,0,0,0-1.74,3.54,5.21,5.21,0,0,0,.27,2.06l2.44,7.15,9.85-3.37-2.44-7.14a5,5,0,0,0-1.05-1.8,5.45,5.45,0,0,0-1.58-1.22,5.17,5.17,0,0,0-1.92-.53A5,5,0,0,0,16.27,136.28Zm.14.41a4.64,4.64,0,0,1,1.87-.24,4.75,4.75,0,0,1,1.76.48A4.57,4.57,0,0,1,21.5,138a4.7,4.7,0,0,1,.94,1.6l2.29,6.73-5.59,1.91-3.35,1.14-2.3-6.73a4.6,4.6,0,0,1-.23-1.84,4.87,4.87,0,0,1,.46-1.75,4.74,4.74,0,0,1,2.69-2.4Zm.37,1.1a3.24,3.24,0,0,0-1.53,1.1,3.46,3.46,0,0,0,.13,1.64l2,5.73,5.5-1.88L21.35,140a3.53,3.53,0,0,0-1.83-2,4,4,0,0,0-1.33-.36A3.43,3.43,0,0,0,16.78,137.79Z"/><path class="cls-2" d="M.28,105.82l1.45-1.31,22.27.34-.21,14-1.35,1.48L0,120ZM1.35,107l-.18,11.83,20.13.3.18-11.83Zm19.54.8-.16,10.85-19.14-.29.16-10.84Z"/><path class="cls-3" d="M22.87,91.94a9.34,9.34,0,0,1-4,1.33,10.19,10.19,0,0,1-4.57-.65L15,90.55l-.74.34a3.48,3.48,0,0,1-3.37.48L9.81,91A8,8,0,0,1,7,89.22a8.16,8.16,0,0,1-1.82-2.56,8.58,8.58,0,0,1-.73-3.07A8,8,0,0,1,5,80.34L9.12,69.25a7.1,7.1,0,0,1,2-2.89,8.61,8.61,0,0,1,3.1-1.75l.87-.4a9.59,9.59,0,0,1,3.59-.84,9.7,9.7,0,0,1,3.84.64l-.37,1,.05,0a3.61,3.61,0,0,1,2.72-.07l2.16.81a7.94,7.94,0,0,1,2.78,1.72A8.2,8.2,0,0,1,31.65,70a8.53,8.53,0,0,1,.73,3,7.72,7.72,0,0,1-.49,3.17L27.75,87.31a7.08,7.08,0,0,1-1.6,2.54,8.12,8.12,0,0,1-2.45,1.71Zm-.24-25.16a2.3,2.3,0,0,0-1.82,0,2.18,2.18,0,0,0-1.21,1.31L15.46,79.2l-5.51-2,2.48-6.66a4.74,4.74,0,0,1,1-1.58,4.83,4.83,0,0,1,1.46-1.06,4.48,4.48,0,0,1,1.75-.44,4.41,4.41,0,0,1,1.85.29l.81-2.17a7,7,0,0,0-2.76-.44,7.08,7.08,0,0,0-2.63.61,7.21,7.21,0,0,0-2.21,1.57,6.85,6.85,0,0,0-1.49,2.39L6.07,80.74a7,7,0,0,0,.2,5.45,7.2,7.2,0,0,0,1.58,2.2,6.81,6.81,0,0,0,2.38,1.49l1.11.41a2.32,2.32,0,0,0,1.81-.05,2.27,2.27,0,0,0,1.24-1.35L21.83,69l2.2.82a4.56,4.56,0,0,1,1.6,1,4.68,4.68,0,0,1,1.06,1.48A4.42,4.42,0,0,1,27.1,74a4.82,4.82,0,0,1-.3,1.83l-2.48,6.66-4.43-1.66L15.76,91.94a6.87,6.87,0,0,0,2.79.44,7.15,7.15,0,0,0,2.66-.62,7,7,0,0,0,3.72-4l4.13-11.09a6.85,6.85,0,0,0,.44-2.78,6.93,6.93,0,0,0-.65-2.63,7.2,7.2,0,0,0-4-3.68Zm2,1.2a6.39,6.39,0,0,1,2.26,1.4,6.59,6.59,0,0,1,1.47,2.07A7,7,0,0,1,29,73.91a6,6,0,0,1-.39,2.57L24.46,87.57a6.42,6.42,0,0,1-1.31,2.16,7.08,7.08,0,0,1-1.92,1.46,6.6,6.6,0,0,1-4.8.42L20.2,81.48l4.4,1.64L27.26,76a5.19,5.19,0,0,0,.32-2A5.79,5.79,0,0,0,27.13,72a5.13,5.13,0,0,0-2.93-2.72l-2.67-1-7.6,20.39a1.83,1.83,0,0,1-1,1.08,1.8,1.8,0,0,1-1.44,0l-1.12-.42A6.64,6.64,0,0,1,8.15,88,6.55,6.55,0,0,1,6.5,80.87l4.13-11.09a6.11,6.11,0,0,1,1.31-2.11,7,7,0,0,1,2-1.43,6.93,6.93,0,0,1,2.34-.67,6.4,6.4,0,0,1,2.46.21l-.49,1.31A5.21,5.21,0,0,0,16.28,67a5,5,0,0,0-1.8.55A5.33,5.33,0,0,0,13,68.64a5,5,0,0,0-1,1.64L9.31,77.42l6.4,2.38L20,68.24a1.88,1.88,0,0,1,2.45-1.09Zm-9.42,8.49,2.81-7.55a4.42,4.42,0,0,0-1.7,0A1.55,1.55,0,0,0,15.26,70l-2.12,5.67Zm8.85,3.3,1.62-4.33a3.14,3.14,0,0,0,.21-1.35,3.48,3.48,0,0,0-.3-1.29,3.54,3.54,0,0,0-.74-1.11,3.29,3.29,0,0,0-1.11-.78l-2.93,7.87.26-.12Z"/><path class="cls-4" d="M43.31,25.33l3.25,3.14-4.91,5.09L54.42,45.89l-9.68,10L42.85,56l-.12.12L30.91,44.7l-3.87,4h-1.9l-.12.12-3.35-3.23L41.29,25.27Zm-2,1.55-18,18.7L25,47.23l4.91-5.09L42.7,54.46,50.92,46,38.14,33.63l4.91-5.09Zm1,1.62-4.94,5.11L50.22,45.94l-7.51,7.78L29.94,41.4,25,46.51l-1-1,17.37-18Z"/><path class="cls-5" d="M65.73,26.77a9.53,9.53,0,0,1-3.4-1.8,7.76,7.76,0,0,1-2.27-3.07,8.08,8.08,0,0,1-.61-3.25,8.42,8.42,0,0,1,.67-3.08A8.52,8.52,0,0,1,61.88,13a7.89,7.89,0,0,1,2.67-1.79L83.13,3.56l.05.13L85,4.43,93.39,25,80.48,30.33l-1.75-.72-.13.05-1.74-4.24-3,1.21-2.22,7.3-5.35,2.19-2-.61,2.49-8.29-.28-.14Zm21.72-9.69L82.51,5l-11,4.48L65,12.2a6.59,6.59,0,0,0-2.32,1.56A7.19,7.19,0,0,0,61.17,16a7.38,7.38,0,0,0-.56,2.68,6.8,6.8,0,0,0,.52,2.76,6.87,6.87,0,0,0,1.2,1.93,7.53,7.53,0,0,0,1.72,1.47,7,7,0,0,0,2.07.86,6.41,6.41,0,0,0,2.27.11l-2.31,7.71,2.81-1.15,2.27-7.32L73.71,24,77,22.68l1.33,3.26.91,2.22,10.92-4.47Zm-8,10.41L77.18,22,70.7,24.63,68.45,32l-1.66.68L69,25.24a7.09,7.09,0,0,1-2.39-.07,7.26,7.26,0,0,1-2.18-.78A7,7,0,0,1,62.7,23a5.66,5.66,0,0,1-1.17-1.78A6.43,6.43,0,0,1,61,18.68a7,7,0,0,1,.52-2.47,6.83,6.83,0,0,1,1.4-2.1,6.53,6.53,0,0,1,2.21-1.47l17-7,7.25,17.72ZM72.7,11l-7,2.87A4.91,4.91,0,0,0,64,15.07a5.16,5.16,0,0,0-1.1,1.67,5.39,5.39,0,0,0-.39,2,5,5,0,0,0,.37,2A5.19,5.19,0,0,0,64,22.43a5.13,5.13,0,0,0,1.65,1.1,5.15,5.15,0,0,0,4,0l7-2.87Zm3.39,9.45-6.6,2.7a4.51,4.51,0,0,1-1.81.34,5,5,0,0,1-1.77-.37,4.81,4.81,0,0,1-1.52-1,4.68,4.68,0,0,1-1-5.19,5.1,5.1,0,0,1,1-1.49,4.59,4.59,0,0,1,1.53-1l6.6-2.7,2.23,5.46.9,2.19Zm-3.71-6-4.22,1.72A3.52,3.52,0,0,0,67,17a3.75,3.75,0,0,0-.78,1.17,3.63,3.63,0,0,0-.28,1.36,3.68,3.68,0,0,0,.26,1.42,4,4,0,0,0,1,1.37,3.15,3.15,0,0,0,1.9-.2l5.54-2.26Z"/><path class="cls-6" d="M105,20.67a8.42,8.42,0,0,1-2.36-2.94,8.11,8.11,0,0,1-.81-3.85L101.94,8a8.3,8.3,0,0,1,.73-3.23,8.38,8.38,0,0,1,1.84-2.57A8.59,8.59,0,0,1,107.17.54,8.32,8.32,0,0,1,110.42,0l11.81.33a8.15,8.15,0,0,1,3.76,1,7.82,7.82,0,0,1,2.77,2.53l.53.55A8.56,8.56,0,0,1,131,7a7.7,7.7,0,0,1,.58,3.23l-.17,5.88a8,8,0,0,1-.73,3.21,8.2,8.2,0,0,1-4.48,4.21,8,8,0,0,1-3.16.54l-11.81-.32A7.9,7.9,0,0,1,108,23a9,9,0,0,1-2.53-1.8Zm24.14-11.9A6.75,6.75,0,0,0,128.61,6a7.3,7.3,0,0,0-1.45-2.3A7.17,7.17,0,0,0,125,2.12a7,7,0,0,0-2.74-.63L110.4,1.16a6.77,6.77,0,0,0-2.77.48,7.22,7.22,0,0,0-3.9,3.68,6.83,6.83,0,0,0-.64,2.73l-.16,5.87a7.23,7.23,0,0,0,1.95,5.1,7.38,7.38,0,0,0,2.22,1.59,6.84,6.84,0,0,0,2.74.64l11.83.32a6.75,6.75,0,0,0,2.76-.48,7,7,0,0,0,3.86-3.7,6.75,6.75,0,0,0,.64-2.74Zm-.73,5.81a6.75,6.75,0,0,1-2,4.62,6.39,6.39,0,0,1-2.13,1.37,6.47,6.47,0,0,1-2.61.46l-11.79-.33a6.21,6.21,0,0,1-2.56-.6,6.72,6.72,0,0,1-3.43-3.63,6.42,6.42,0,0,1-.46-2.58L103.51,8a6.36,6.36,0,0,1,.59-2.56,6.84,6.84,0,0,1,1.49-2.06,6.51,6.51,0,0,1,4.73-1.79l11.79.32a6.49,6.49,0,0,1,4.64,2.05,6.87,6.87,0,0,1,1.33,2.15,6.55,6.55,0,0,1,.44,2.58Zm-1.2-5.95a5.15,5.15,0,0,0-.35-2,5.25,5.25,0,0,0-1.08-1.69,5.53,5.53,0,0,0-1.63-1.19,5,5,0,0,0-2-.48L114.53,3l-.46,16.35,7.55.21a5.21,5.21,0,0,0,2-.35,5.44,5.44,0,0,0,1.69-1.06,5,5,0,0,0,1.17-1.62,5.08,5.08,0,0,0,.47-2Zm-.57,5.95a4.6,4.6,0,0,1-.43,1.84,4.77,4.77,0,0,1-1.06,1.48,4.91,4.91,0,0,1-1.54,1,4.37,4.37,0,0,1-1.83.32l-7.1-.19.42-15.36,7.11.19a4.77,4.77,0,0,1,3.29,1.49,4.89,4.89,0,0,1,1,1.53,4.68,4.68,0,0,1,.32,1.86Zm-1-5.92a3.41,3.41,0,0,0-.45-1.85,3.54,3.54,0,0,0-1.62-.46l-6-.16-.33,11.72,4.62.13a3.49,3.49,0,0,0,1.39-.25,3.62,3.62,0,0,0,1.16-.75,3.91,3.91,0,0,0,.79-1.12,3.22,3.22,0,0,0,.33-1.38Z"/><path class="cls-7" d="M198.25,38.38l-2.92,3.4L189,36.31a8.63,8.63,0,0,1,2,6l.06.77a9,9,0,0,1-.35,3.09A7.52,7.52,0,0,1,189.11,49a8.13,8.13,0,0,1-2.57,2,8.25,8.25,0,0,1-3,.82,8.44,8.44,0,0,1-3.11-.37,7.58,7.58,0,0,1-2.81-1.56l-15.17-13-.09-2.14L176.76,18l21.41,18.38Zm-1.71-1.92-10.73-9.21-9-7.71-8.45,9.84-4.64,5.41,9,7.7,5.39,4.63a6.85,6.85,0,0,0,2.45,1.37,7.13,7.13,0,0,0,7.53-2.19,7,7,0,0,0,1.36-2.41,7.29,7.29,0,0,0,.33-2.69,7,7,0,0,0-2.43-4.84L184.61,34,182,31.73l2.33-2.7,5.39,4.62L195,38.24Zm-1.56,1-10.73-9.21-2.95,3.43L187,36.63a6.41,6.41,0,0,1,1.63,2.09,6.54,6.54,0,0,1,.34,5,6.74,6.74,0,0,1-3.34,3.89,6.73,6.73,0,0,1-2.44.69,6.56,6.56,0,0,1-2.51-.28,6.29,6.29,0,0,1-2.32-1.29l-14-12,12.47-14.53,19,16.3Zm-8.3,7.58a5,5,0,0,0,1-1.79,5.2,5.2,0,0,0,.23-2,5.29,5.29,0,0,0-.53-1.94,5,5,0,0,0-1.28-1.64l-5.73-4.91-6.78,7.89,5.73,4.92a5.22,5.22,0,0,0,1.82,1,5.58,5.58,0,0,0,2,.24,4.92,4.92,0,0,0,1.92-.52A5,5,0,0,0,186.68,45.07Zm-.33-.29a4.6,4.6,0,0,1-1.49,1.16,4.89,4.89,0,0,1-1.76.49,5.08,5.08,0,0,1-1.81-.21,4.45,4.45,0,0,1-1.63-.91l-5.39-4.62,3.85-4.49,2.31-2.68,5.39,4.62A4.6,4.6,0,0,1,187,39.61a4.86,4.86,0,0,1,.5,1.75,4.65,4.65,0,0,1-1.1,3.42Zm-.88-.75a3.29,3.29,0,0,0,.76-1.72,3.31,3.31,0,0,0-.95-1.35l-4.59-4-3.78,4.42,3.5,3a3.57,3.57,0,0,0,1.24.68,3.4,3.4,0,0,0,1.37.14,3.82,3.82,0,0,0,1.32-.36A3.27,3.27,0,0,0,185.47,44Z"/><path class="cls-8" d="M209.16,85.44l-.8,1.91-6.23,2.88-1.88-4,.63-1.79-.07-.15,1-.45-4.2-9.07-2.16,1L189.52,63l.71-1.6-.07-.16,6.42-3,.54,1.17,6.48-3a8.13,8.13,0,0,1,6.31-.26,8.43,8.43,0,0,1,2.69,1.64,8,8,0,0,1,1.93,2.63l4.56,9.84a8.15,8.15,0,0,1-.29,7.47l-.21.67A8.29,8.29,0,0,1,217,81.12,8.1,8.1,0,0,1,214.34,83Zm-3.63.48,2.12-1-.58-1.27,7.51-3.48a6.79,6.79,0,0,0,2.25-1.66,7.37,7.37,0,0,0,1.42-2.32,7.29,7.29,0,0,0,.44-2.68,7,7,0,0,0-.65-2.74L213.48,61a7,7,0,0,0-4-3.65,7.28,7.28,0,0,0-2.68-.43,6.75,6.75,0,0,0-2.73.65L198.71,60l-2.15,1L196,59.83l-4.32,2,4.92,10.61,2.16-1,2.75,6,3,6.42-2.16,1,1,2.13ZM203,85l2.11-1L199,70.76l-2.1,1L192.36,62l3.39-1.57.55,1.18,8-3.69a6.8,6.8,0,0,1,2.57-.64,6.62,6.62,0,0,1,2.48.39,6.48,6.48,0,0,1,2.14,1.3A6.37,6.37,0,0,1,213,61.14L217.56,71a6.54,6.54,0,0,1,.62,2.54,6.43,6.43,0,0,1-.39,2.48,6.67,6.67,0,0,1-1.3,2.16,6.52,6.52,0,0,1-2.14,1.58l-8,3.68.57,1.24-3.39,1.57Zm10.78-6.5a4.94,4.94,0,0,0,1.68-1.23,5.16,5.16,0,0,0,1.35-3.7,5,5,0,0,0-.47-2L214,66.43l-12.71,5.89,4.58,9.87Zm-7.71,3-4.16-9,11.78-5.47,2.19,4.72a4.56,4.56,0,0,1,.42,1.8,5,5,0,0,1-.28,1.77,4.62,4.62,0,0,1-.93,1.56A4.46,4.46,0,0,1,213.57,78Zm7-4.53a3.44,3.44,0,0,0,1.42-1.22,3.35,3.35,0,0,0-.3-1.63l-1.72-3.7L204,74.36l2.6,5.62Z"/><path class="cls-9" d="M226.29,127.56l-4.49,0-.08-8.39a8.31,8.31,0,0,1-1.11,3.08,8.65,8.65,0,0,1-2.1,2.39l-.54.55a9.1,9.1,0,0,1-2.55,1.77,7.51,7.51,0,0,1-3.17.69,7.83,7.83,0,0,1-3.2-.61,8,8,0,0,1-2.62-1.74,8.66,8.66,0,0,1-1.78-2.59,7.76,7.76,0,0,1-.67-3.14l-.19-20,1.54-1.47,22.17-.22.27,28.22Zm.32-2.55-.14-14.15L226.36,99l-13,.13-7.13.07.12,11.83.07,7.1a6.71,6.71,0,0,0,.58,2.75,7,7,0,0,0,1.55,2.23,7.13,7.13,0,0,0,10-.1,7.06,7.06,0,0,0,1.51-2.26,6.88,6.88,0,0,0,.53-2.75l0-3.61,0-3.5,3.57,0,.07,7.1.07,7Zm-1.81-.5-.14-14.14-4.52,0,.07,7.55a6.49,6.49,0,0,1-1.91,4.71,6.61,6.61,0,0,1-2.09,1.42,6.7,6.7,0,0,1-2.56.53,6.49,6.49,0,0,1-2.57-.48,6.64,6.64,0,0,1-2.12-1.38,6.49,6.49,0,0,1-1.45-2.07,6.31,6.31,0,0,1-.55-2.6l-.18-18.43,19.14-.18.24,25Zm-11.17-1.25a5.24,5.24,0,0,0,3.66-1.56,5.21,5.21,0,0,0,1.5-3.72l-.08-7.55-10.4.1.07,7.55a5.13,5.13,0,0,0,.43,2,5.46,5.46,0,0,0,1.12,1.66,5.17,5.17,0,0,0,3.7,1.49Zm0-.44a4.47,4.47,0,0,1-1.86-.36,4.9,4.9,0,0,1-1.52-1,4.82,4.82,0,0,1-1-1.51,4.33,4.33,0,0,1-.39-1.81l-.07-7.11,5.91,0,3.54,0,.07,7.11a4.83,4.83,0,0,1-1.35,3.34,4.6,4.6,0,0,1-1.48,1A4.76,4.76,0,0,1,213.63,122.82Zm0-1.16a3.26,3.26,0,0,0,1.8-.56,3.56,3.56,0,0,0,.39-1.6l-.06-6-5.81,0,0,4.63a3.63,3.63,0,0,0,.3,1.37,3.56,3.56,0,0,0,.8,1.13,3.85,3.85,0,0,0,1.14.76A3.3,3.3,0,0,0,213.62,121.66Z"/><path class="cls-10" d="M201.79,152.56l-1.82,4.2a3.64,3.64,0,0,0-.31,1.39,3.72,3.72,0,0,0,.25,1.36,3.77,3.77,0,0,0,.73,1.17,3.44,3.44,0,0,0,1.16.82l13,5.62-1.86,4.31-.13-.06-1.77.68-12.92-5.6a8.13,8.13,0,0,1-4.38-4.47,7.93,7.93,0,0,1-.55-3.07,8.14,8.14,0,0,1,.69-3.19l4.7-10.85a7.39,7.39,0,0,1,1.85-2.69,9,9,0,0,1,2.63-1.67l.81-.32a8,8,0,0,1,3.55-1.09,8.16,8.16,0,0,1,3.81.68l13,5.63-5.61,13-.12-.06-1.79.71Zm.23,12.89,10.33,4.47,1-2.18L202.44,163l-1.09-.47a4.64,4.64,0,0,1-1.56-1.08,4.58,4.58,0,0,1-1-1.53,4.86,4.86,0,0,1-.32-1.79,4.66,4.66,0,0,1,.39-1.85l2.81-6.48,16.29,7L222.7,146l-10.64-4.61-1.31-.56a6.79,6.79,0,0,0-2.75-.58,7.32,7.32,0,0,0-2.68.49,7,7,0,0,0-3.9,3.75l-4.7,10.86a6.85,6.85,0,0,0-.59,2.76,7.19,7.19,0,0,0,.5,2.7,7.09,7.09,0,0,0,1.47,2.31,6.7,6.7,0,0,0,2.3,1.6Zm-1.37-1.19a6.69,6.69,0,0,1-2.19-1.49,6.39,6.39,0,0,1-1.37-2.11,7.1,7.1,0,0,1-.46-2.49,6.41,6.41,0,0,1,.54-2.57l4.7-10.86a6.46,6.46,0,0,1,1.51-2.16,6.86,6.86,0,0,1,2.13-1.35,6.29,6.29,0,0,1,2.48-.47,6.65,6.65,0,0,1,2.59.57l11.45,5-4.31,10-16.22-7-3,7a5.23,5.23,0,0,0-.44,2,5.11,5.11,0,0,0,1.44,3.63,5.08,5.08,0,0,0,1.71,1.18l11.45,5-.54,1.25Z"/><path class="cls-11" d="M185.2,174.61a9.27,9.27,0,0,1,4.19.63,10.34,10.34,0,0,1,3.79,2.64l-1.63,1.5.82,0a3.48,3.48,0,0,1,3.23,1.09l.81.87a8.06,8.06,0,0,1,1.71,2.81,7.93,7.93,0,0,1,.47,3.11,8.46,8.46,0,0,1-.73,3.06,8.06,8.06,0,0,1-1.94,2.67l-8.68,8a7.13,7.13,0,0,1-3.07,1.7,8.62,8.62,0,0,1-3.55.16l-1,0a9.18,9.18,0,0,1-3.58-.87,9.72,9.72,0,0,1-3.15-2.3l.78-.71h-.05a3.63,3.63,0,0,1-2.46-1.16l-1.57-1.7a7.92,7.92,0,0,1-1.7-2.79,8.32,8.32,0,0,1-.47-3.11,8.55,8.55,0,0,1,.72-3.05,7.77,7.77,0,0,1,1.88-2.61l8.68-8a7.15,7.15,0,0,1,2.58-1.55,8.21,8.21,0,0,1,3-.43Zm-11.14,22.56a2.33,2.33,0,0,0,1.64.8,2.16,2.16,0,0,0,1.67-.62l8.69-8,4,4.32-5.21,4.82a4.67,4.67,0,0,1-1.59,1,5.05,5.05,0,0,1-1.79.29,4.42,4.42,0,0,1-1.76-.4,4.49,4.49,0,0,1-1.52-1.09l-1.7,1.57a6.93,6.93,0,0,0,2.26,1.64,7.41,7.41,0,0,0,2.63.64,7.09,7.09,0,0,0,2.68-.41,6.86,6.86,0,0,0,2.4-1.46l8.69-8a7,7,0,0,0,2.28-5,7.33,7.33,0,0,0-.42-2.68,6.8,6.8,0,0,0-1.45-2.39l-.8-.88a2.37,2.37,0,0,0-1.64-.77,2.3,2.3,0,0,0-1.72.65l-15.63,14.45-1.59-1.73a4.59,4.59,0,0,1-1-1.61,4.93,4.93,0,0,1-.28-1.81,4.7,4.7,0,0,1,1.53-3.26l5.22-4.82,3.2,3.47,8.69-8a6.74,6.74,0,0,0-2.29-1.65,7.22,7.22,0,0,0-2.66-.65,7.08,7.08,0,0,0-2.68.4,6.83,6.83,0,0,0-2.43,1.48l-8.69,8a6.77,6.77,0,0,0-1.64,2.28,7,7,0,0,0-.16,5.34,6.92,6.92,0,0,0,1.48,2.4Zm-1.28-2a6.45,6.45,0,0,1-1.38-2.27,6.64,6.64,0,0,1-.38-2.51,6.81,6.81,0,0,1,.58-2.46,6,6,0,0,1,1.51-2.12l8.69-8a6.47,6.47,0,0,1,2.14-1.34,6.84,6.84,0,0,1,2.38-.43,6.26,6.26,0,0,1,2.36.45,6.76,6.76,0,0,1,2.12,1.33l-7.94,7.34-3.19-3.44-5.59,5.17a5,5,0,0,0-1.2,1.66,5.36,5.36,0,0,0-.47,1.94,5,5,0,0,0,.3,2,5.22,5.22,0,0,0,1.08,1.78l1.94,2.1,16-14.78a1.87,1.87,0,0,1,1.37-.52,1.84,1.84,0,0,1,1.3.61l.81.88a6.65,6.65,0,0,1,1.77,4.75,6.51,6.51,0,0,1-.58,2.47,6.69,6.69,0,0,1-1.56,2.14l-8.69,8A6.14,6.14,0,0,1,184,201.2a6.74,6.74,0,0,1-2.39.4,6.85,6.85,0,0,1-2.39-.46,6.34,6.34,0,0,1-2.1-1.29l1-.95a5.12,5.12,0,0,0,1.66,1,5.43,5.43,0,0,0,1.85.33,5.72,5.72,0,0,0,1.86-.35,5,5,0,0,0,1.64-1l5.59-5.17-4.64-5-9.06,8.38a1.82,1.82,0,0,1-1.35.5,1.84,1.84,0,0,1-1.32-.63Zm5.83-10.28-3.4,3.14a3.57,3.57,0,0,0-.8,1.11,3.94,3.94,0,0,0-.32,1.29,3.83,3.83,0,0,0,.17,1.33,3.27,3.27,0,0,0,.64,1.19l6.16-5.7h-.28Zm6.41,7-5.91,5.46a4.49,4.49,0,0,0,1.51.79,1.56,1.56,0,0,0,1.48-.5l4.45-4.11Z"/><path class="cls-12" d="M136.27,224.89l-7.23-21,4.31-1.48,1.69.82.16-.06,3,8.81,7.75-2.66-3.45-10.06,13.22-4.54,1.84.77,7.28,21.19-13.38,4.59-1.74-1L147.93,215l-7.75,2.66,2.3,6.69-4.41,1.51Zm2.52-.51,2.22-.76-2.3-6.69,11.19-3.84,2.3,6.68,11.19-3.84-6.53-19-11.19,3.84,3.46,10.07-11.19,3.84-3.46-10.07-2.22.76Zm-5.88-18.69,1.29-.44,3.45,10.06,12.13-4.16-3.46-10.06,10.26-3.53,6.21,18.11-10.25,3.52-2.3-6.69-12.12,4.16,2.29,6.69-1.28.45Z"/><path class="cls-13" d="M89,224.42,102.19,216,90.58,202.24l6.57.57,7.54,9.12.73-8.41,13.89,1.21,1.2,1.43.21,0-1.93,22.32-14.06-1.21-1.23-1.61.24-2.78-5.48,3.83-8.1-.7Zm4.71.75,4.27.37,8.55-5.75-.55,6.44,11.78,1,1.74-20-11.79-1-.82,9.76-8.94-10.6-3.42-.3,10.78,12.69Zm12.37-7.29L95.7,205.69l2,.17,9.5,11.27.9-10.37,10.8.94-1.65,19-10.8-.93.59-6.88q-1.24.72-9.16,6.14l-2.61-.23Z"/><path class="cls-14" d="M53.4,192.83l-.48-2,3.35-6,3.9,2.18.53,1.81.15.09-.51.92,8.73,4.87,1.16-2.08,12.23,6.82.36,1.73.15.08-3.45,6.17-1.12-.63L74.92,213a8.3,8.3,0,0,1-2.14,2.51A8.17,8.17,0,0,1,70,216.93a8.68,8.68,0,0,1-3.14.25,8,8,0,0,1-3.11-1l-9.47-5.29a7.92,7.92,0,0,1-2.86-2.65,8,8,0,0,1-1.3-3.57l-.21-.66a8.36,8.36,0,0,1-.28-3.11,8.13,8.13,0,0,1,1-3.1Zm2.65-2.53-1.14,2,1.22.67-4,7.23a7,7,0,0,0-.85,2.68,7.39,7.39,0,0,0,.23,2.7,7,7,0,0,0,1.21,2.43,6.73,6.73,0,0,0,2.13,1.83l9.48,5.29A6.85,6.85,0,0,0,67,216a7.22,7.22,0,0,0,2.71-.24,7.49,7.49,0,0,0,2.42-1.23,7,7,0,0,0,1.83-2.13l2.87-5.15L78,205.2l1.13.63,2.32-4.15L71.18,196,70,198.05l-5.73-3.19-6.17-3.45,1.16-2.08-2.05-1.14Zm2.59-.74-1.15,2,12.79,7.15,1.13-2,9.32,5.2-1.82,3.26-1.13-.63-4.27,7.67a6.76,6.76,0,0,1-1.72,2,6.58,6.58,0,0,1-2.23,1.15,6.69,6.69,0,0,1-2.49.2,6.6,6.6,0,0,1-2.51-.81l-9.47-5.29A6.58,6.58,0,0,1,52,205.53a6.78,6.78,0,0,1-.21-2.51,6.36,6.36,0,0,1,.81-2.53l4.27-7.66-1.19-.66,1.83-3.27Zm-4.91,11.59a5.3,5.3,0,0,0-.47,4,5.32,5.32,0,0,0,.91,1.79,4.92,4.92,0,0,0,1.56,1.34l5,2.76,6.83-12.23-9.5-5.3Zm4.48-7L66.85,199l-6.33,11.34L56,207.81a4.59,4.59,0,0,1-1.39-1.2,5.28,5.28,0,0,1-.82-1.6,4.72,4.72,0,0,1-.16-1.8,4.52,4.52,0,0,1,.57-1.8Zm-3,7.8a3.36,3.36,0,0,0-.43,1.82,3.14,3.14,0,0,0,1.2,1.14l3.56,2,4.55-8.17-5.4-3Z"/></g></g></svg>
